<?xml version="1.0" encoding="UTF-8" standalone="no"?><!-- Generator: Gravit.io --><svg xmlns="http://www.w3.org/2000/svg" xmlns:xlink="http://www.w3.org/1999/xlink" style="isolation:isolate" viewBox="0 0 2.4 12.4" width="2.4pt" height="12.4pt"><defs><clipPath id="_clipPath_WJ7gdUjHK9WxQNSVjux3OXvzQqVzoG35"><rect width="2.4" height="12.4"/></clipPath></defs><g clip-path="url(#_clipPath_WJ7gdUjHK9WxQNSVjux3OXvzQqVzoG35)"><path d=" M 0 1.2 C 0 0.538 0.538 0 1.2 0 C 1.862 0 2.4 0.538 2.4 1.2 C 2.4 1.862 1.862 2.4 1.2 2.4 C 0.538 2.4 0 1.862 0 1.2 L 0 1.2 Z  M 0 6.2 C 0 5.538 0.538 5 1.2 5 C 1.862 5 2.4 5.538 2.4 6.2 C 2.4 6.862 1.862 7.4 1.2 7.4 C 0.538 7.4 0 6.862 0 6.2 L 0 6.2 Z  M 0 11.2 C 0 10.538 0.538 10 1.2 10 C 1.862 10 2.4 10.538 2.4 11.2 C 2.4 11.862 1.862 12.4 1.2 12.4 C 0.538 12.4 0 11.862 0 11.2 Z " fill-rule="evenodd" fill="#ffffff"/></g></svg>
