<svg xmlns="http://www.w3.org/2000/svg" xmlns:xlink="http://www.w3.org/1999/xlink" style="isolation:isolate" viewBox="0 0 454.687 150.209"><defs><clipPath id="_clipPath_IC5IzDymYekqxFUGYfdr5unbgISVIjdx"><rect width="454.687" height="150.209"/></clipPath></defs><g clip-path="url(#_clipPath_IC5IzDymYekqxFUGYfdr5unbgISVIjdx)"><path d=" M 19.907 75.105 L 7.255 34.602 L 0.693 13.594 C 0.395 12.475 -0.042 11.288 0.003 9.95 C 0.003 4.458 4.462 0 9.953 0 C 12.195 0 14.52 0.975 15.929 1.996 L 53.88 25.828 L 106.227 58.701 C 111.666 61.863 115.903 67.51 115.903 74.357 C 115.903 74.607 115.898 74.857 115.886 75.105 L 115.886 75.105 C 115.898 75.353 115.903 75.602 115.903 75.853 C 115.903 82.7 111.666 88.347 106.227 91.508 L 53.88 124.381 L 15.929 148.214 C 14.52 149.234 12.195 150.209 9.953 150.209 C 4.462 150.209 0.003 145.751 0.003 140.259 C -0.043 138.922 0.395 137.734 0.693 136.615 L 7.255 115.607 L 19.907 75.105 L 19.907 75.105 Z " fill="rgb(75,190,135)"/><clipPath id="_clipPath_IR1CySAqbmgEbD677RjDKd2vevmLHYjA"><path d=" M 19.907 75.105 L 7.255 34.602 L 0.693 13.594 C 0.395 12.475 -0.042 11.288 0.003 9.95 C 0.003 4.458 4.462 0 9.953 0 C 12.195 0 14.52 0.975 15.929 1.996 L 53.88 25.828 L 106.227 58.701 C 111.666 61.863 115.903 67.51 115.903 74.357 C 115.903 74.607 115.898 74.857 115.886 75.105 L 115.886 75.105 C 115.898 75.353 115.903 75.602 115.903 75.853 C 115.903 82.7 111.666 88.347 106.227 91.508 L 53.88 124.381 L 15.929 148.214 C 14.52 149.234 12.195 150.209 9.953 150.209 C 4.462 150.209 0.003 145.751 0.003 140.259 C -0.043 138.922 0.395 137.734 0.693 136.615 L 7.255 115.607 L 19.907 75.105 L 19.907 75.105 Z " fill="#577B6A"/></clipPath><g clip-path="url(#_clipPath_IR1CySAqbmgEbD677RjDKd2vevmLHYjA)"><path d=" M 6 31.1 C 32.563 116.688 40.826 129.767 19.907 145.1 C 8.108 156.379 -11.65 154.776 -39.397 140.259 L 6 31.1 Z " fill="#577B6A"/></g><path d=" M 212.625 110.401 L 212.625 47.12 L 206.906 47.12 L 181.594 74.214 L 156.094 47.12 L 150.375 47.12 L 150.375 110.401 L 163.406 110.401 L 163.406 71.026 L 179.719 88.839 L 183.562 88.839 L 199.594 71.026 L 199.594 110.401 L 212.625 110.401 Z  M 251.344 61.839 C 237.562 61.839 226.031 72.808 226.031 86.87 C 226.031 100.839 237.562 111.808 251.344 111.808 C 265.125 111.808 276.75 100.839 276.75 86.87 C 276.75 72.808 265.125 61.839 251.344 61.839 Z  M 251.344 73.37 C 258.094 73.37 264.094 78.245 264.094 86.87 C 264.094 95.495 258.094 100.276 251.344 100.276 C 244.594 100.276 238.687 95.495 238.687 86.87 C 238.687 78.245 244.594 73.37 251.344 73.37 Z  M 310.031 61.839 C 296.25 61.839 284.719 72.808 284.719 86.87 C 284.719 100.839 296.25 111.808 310.031 111.808 C 323.812 111.808 335.437 100.839 335.437 86.87 C 335.437 72.808 323.812 61.839 310.031 61.839 Z  M 310.031 73.37 C 316.781 73.37 322.781 78.245 322.781 86.87 C 322.781 95.495 316.781 100.276 310.031 100.276 C 303.281 100.276 297.375 95.495 297.375 86.87 C 297.375 78.245 303.281 73.37 310.031 73.37 Z  M 361.969 61.839 C 351.281 61.839 343.781 67.933 343.781 76.839 C 343.781 82.839 346.125 87.245 353.344 89.683 L 359.156 91.745 C 363.281 93.151 365.437 94.183 365.437 96.62 C 365.437 99.714 362.812 101.495 358.031 101.495 C 353.437 101.495 347.062 99.058 343.5 96.62 L 343.5 107.026 C 346.687 109.37 353.25 111.808 359.625 111.808 C 369.75 111.808 378 105.339 378 96.62 C 378 90.526 374.531 86.308 367.219 84.151 L 361.875 82.37 C 357.656 81.058 356.437 79.464 356.437 77.401 C 356.437 74.589 359.25 72.339 363.75 72.339 C 368.437 72.339 373.031 74.683 375.937 76.651 L 375.937 66.151 C 373.219 63.808 367.875 61.839 361.969 61.839 Z  M 398.062 54.526 C 402.562 54.526 406.312 50.776 406.312 46.464 C 406.312 42.058 402.562 38.401 398.062 38.401 C 393.562 38.401 389.906 42.058 389.906 46.464 C 389.906 50.776 393.562 54.526 398.062 54.526 Z  M 404.719 63.058 L 385.219 63.058 L 385.219 73.183 L 392.812 73.183 L 392.812 110.401 L 404.719 110.401 L 404.719 63.058 Z  M 440.719 61.839 C 426.469 61.839 415.875 73.651 415.875 86.964 C 415.875 100.276 426.469 111.808 440.719 111.808 C 447.75 111.808 452.062 109.276 454.687 107.026 L 454.687 96.151 C 451.406 98.495 447.562 100.276 441.75 100.276 C 434.062 100.276 428.531 94.651 428.531 86.964 C 428.531 79.276 434.531 73.558 441.75 73.558 C 447.562 73.558 451.406 75.433 454.687 77.776 L 454.687 66.808 C 452.062 64.651 447.75 61.839 440.719 61.839 Z " fill="#4C4746"/></g></svg>
