<svg xmlns="http://www.w3.org/2000/svg" xmlns:xlink="http://www.w3.org/1999/xlink" style="isolation:isolate" viewBox="0 0 113.054 141"><g><path d=" M 0 78.279 L 25.279 78.279 L 25.279 50.29 C 25.279 47.67 27.407 45.542 30.027 45.542 C 32.647 45.542 34.769 47.67 34.769 50.29 L 34.769 78.279 L 62.764 78.279 C 65.384 78.279 67.506 80.407 67.506 83.027 C 67.506 85.652 65.389 87.769 62.764 87.769 L 62.764 87.769 L 34.769 87.769 L 34.769 87.769 L 34.769 115.764 C 34.769 118.389 32.652 120.506 30.027 120.506 C 27.407 120.506 25.279 118.384 25.279 115.764 L 25.279 87.769 L 0 87.769 L 0 78.279 Z  M 0 15.896 C 9.173 11.777 19.337 9.485 30.027 9.485 L 30.027 9.485 L 30.027 9.485 L 30.027 9.485 C 70.575 9.485 103.563 42.478 103.563 83.027 C 103.563 106.551 92.461 127.53 75.22 141 L 89.414 141 L 89.414 141 C 104.035 126.025 113.056 105.559 113.054 83.027 C 113.054 37.244 75.809 0 30.027 0 C 19.443 0 9.316 1.99 0 5.616 L 0 15.896 Z " fill-rule="evenodd" fill="rgba(0,0,0,0.1)"/></g></svg>
