<?xml version="1.0" encoding="UTF-8" standalone="no"?><!-- Generator: Gravit.io --><svg xmlns="http://www.w3.org/2000/svg" xmlns:xlink="http://www.w3.org/1999/xlink" style="isolation:isolate" viewBox="0 0 432 120" width="432pt" height="120pt"><defs><clipPath id="_clipPath_jsPPluyHe9gz9W1FYxJvoymVw0jmydZV"><rect width="432" height="120"/></clipPath></defs><g clip-path="url(#_clipPath_jsPPluyHe9gz9W1FYxJvoymVw0jmydZV)"><path d=" M 189.938 90.797 L 189.938 27.515 L 184.219 27.515 L 158.907 54.609 L 133.407 27.515 L 127.688 27.515 L 127.688 90.797 L 140.719 90.797 L 140.719 51.422 L 157.032 69.234 L 160.875 69.234 L 176.907 51.422 L 176.907 90.797 L 189.938 90.797 Z  M 228.657 42.235 C 214.875 42.235 203.344 53.203 203.344 67.266 C 203.344 81.234 214.875 92.203 228.657 92.203 C 242.438 92.203 254.063 81.234 254.063 67.266 C 254.063 53.203 242.438 42.235 228.657 42.235 Z  M 228.657 53.766 C 235.407 53.766 241.407 58.641 241.407 67.266 C 241.407 75.891 235.407 80.672 228.657 80.672 C 221.907 80.672 216 75.891 216 67.266 C 216 58.641 221.907 53.766 228.657 53.766 Z  M 287.344 42.235 C 273.563 42.235 262.032 53.203 262.032 67.266 C 262.032 81.234 273.563 92.203 287.344 92.203 C 301.125 92.203 312.75 81.234 312.75 67.266 C 312.75 53.203 301.125 42.235 287.344 42.235 Z  M 287.344 53.766 C 294.094 53.766 300.094 58.641 300.094 67.266 C 300.094 75.891 294.094 80.672 287.344 80.672 C 280.594 80.672 274.688 75.891 274.688 67.266 C 274.688 58.641 280.594 53.766 287.344 53.766 Z  M 339.282 42.235 C 328.594 42.235 321.094 48.328 321.094 57.234 C 321.094 63.234 323.438 67.641 330.657 70.078 L 336.469 72.141 C 340.594 73.547 342.75 74.578 342.75 77.016 C 342.75 80.109 340.125 81.891 335.344 81.891 C 330.75 81.891 324.375 79.453 320.813 77.016 L 320.813 87.422 C 324 89.766 330.563 92.203 336.938 92.203 C 347.063 92.203 355.313 85.734 355.313 77.016 C 355.313 70.922 351.844 66.703 344.532 64.547 L 339.188 62.766 C 334.969 61.453 333.75 59.859 333.75 57.797 C 333.75 54.984 336.563 52.734 341.063 52.734 C 345.75 52.734 350.344 55.078 353.25 57.047 L 353.25 46.547 C 350.532 44.203 345.188 42.235 339.282 42.235 Z  M 375.375 34.922 C 379.875 34.922 383.625 31.172 383.625 26.86 C 383.625 22.453 379.875 18.797 375.375 18.797 C 370.875 18.797 367.219 22.453 367.219 26.86 C 367.219 31.172 370.875 34.922 375.375 34.922 Z  M 382.032 43.453 L 362.532 43.453 L 362.532 53.578 L 370.125 53.578 L 370.125 90.797 L 382.032 90.797 L 382.032 43.453 Z  M 418.032 42.235 C 403.782 42.235 393.188 54.047 393.188 67.359 C 393.188 80.672 403.782 92.203 418.032 92.203 C 425.063 92.203 429.375 89.672 432 87.422 L 432 76.547 C 428.719 78.891 424.875 80.672 419.063 80.672 C 411.375 80.672 405.844 75.047 405.844 67.359 C 405.844 59.672 411.844 53.953 419.063 53.953 C 424.875 53.953 428.719 55.828 432 58.172 L 432 47.203 C 429.375 45.047 425.063 42.235 418.032 42.235 Z " fill="rgb(255,255,255)"/><g><path d=" M 15.904 60 L 5.796 27.643 L 0.554 10.86 C 0.316 9.966 -0.033 9.018 0.003 7.949 C 0.003 3.561 3.565 0 7.952 0 C 9.743 0 11.6 0.779 12.726 1.595 L 43.044 20.634 L 84.864 46.895 C 89.209 49.422 92.594 53.933 92.594 59.403 C 92.594 59.603 92.59 59.802 92.58 60 L 92.58 60 C 92.59 60.199 92.594 60.397 92.594 60.598 C 92.594 66.068 89.209 70.579 84.864 73.105 L 43.044 99.366 L 12.726 118.406 C 11.6 119.221 9.743 120 7.952 120 C 3.565 120 0.003 116.439 0.003 112.051 C -0.034 110.983 0.316 110.034 0.554 109.14 L 5.796 92.357 L 15.904 60 L 15.904 60 Z " fill="rgb(75,190,135)"/><clipPath id="_clipPath_qGleBY9zkTXqm2GsP1ukFKYuJsF9IzI6"><path d=" M 15.904 60 L 5.796 27.643 L 0.554 10.86 C 0.316 9.966 -0.033 9.018 0.003 7.949 C 0.003 3.561 3.565 0 7.952 0 C 9.743 0 11.6 0.779 12.726 1.595 L 43.044 20.634 L 84.864 46.895 C 89.209 49.422 92.594 53.933 92.594 59.403 C 92.594 59.603 92.59 59.802 92.58 60 L 92.58 60 C 92.59 60.199 92.594 60.397 92.594 60.598 C 92.594 66.068 89.209 70.579 84.864 73.105 L 43.044 99.366 L 12.726 118.406 C 11.6 119.221 9.743 120 7.952 120 C 3.565 120 0.003 116.439 0.003 112.051 C -0.034 110.983 0.316 110.034 0.554 109.14 L 5.796 92.357 L 15.904 60 L 15.904 60 Z " fill="rgb(255,255,255)"/></clipPath><g clip-path="url(#_clipPath_qGleBY9zkTXqm2GsP1ukFKYuJsF9IzI6)"><g><path d=" M 4.794 24.845 C 26.014 93.221 32.616 103.669 15.904 115.918 C 6.478 124.929 -9.307 123.649 -31.473 112.051 L 4.794 24.845 Z " fill="rgb(87,123,106)"/></g></g></g></g></svg>