<?xml version="1.0" encoding="UTF-8" standalone="no"?><!-- Generator: Gravit.io --><svg xmlns="http://www.w3.org/2000/svg" xmlns:xlink="http://www.w3.org/1999/xlink" style="isolation:isolate" viewBox="0 0 120 120" width="120pt" height="120pt"><defs><clipPath id="_clipPath_LyweqHbSdAzoRtOLPtNTt2IxfaTCTkf4"><rect width="120" height="120"/></clipPath></defs><g clip-path="url(#_clipPath_LyweqHbSdAzoRtOLPtNTt2IxfaTCTkf4)"><g><path d=" M 29.607 60 L 19.499 27.643 L 14.257 10.86 C 14.019 9.966 13.67 9.018 13.706 7.949 C 13.706 3.561 17.268 0 21.655 0 C 23.446 0 25.303 0.779 26.429 1.595 L 56.747 20.634 L 98.567 46.895 C 102.912 49.422 106.297 53.933 106.297 59.403 C 106.297 59.603 106.293 59.802 106.283 60 L 106.283 60 C 106.293 60.199 106.297 60.397 106.297 60.598 C 106.297 66.068 102.912 70.579 98.567 73.105 L 56.747 99.366 L 26.429 118.406 C 25.303 119.221 23.446 120 21.655 120 C 17.268 120 13.706 116.439 13.706 112.051 C 13.669 110.983 14.019 110.034 14.257 109.14 L 19.499 92.357 L 29.607 60 L 29.607 60 Z " fill="rgb(75,190,135)"/><clipPath id="_clipPath_UaNAjd6LklKVHBEqHyJTFq3Npswgb3HL"><path d=" M 29.607 60 L 19.499 27.643 L 14.257 10.86 C 14.019 9.966 13.67 9.018 13.706 7.949 C 13.706 3.561 17.268 0 21.655 0 C 23.446 0 25.303 0.779 26.429 1.595 L 56.747 20.634 L 98.567 46.895 C 102.912 49.422 106.297 53.933 106.297 59.403 C 106.297 59.603 106.293 59.802 106.283 60 L 106.283 60 C 106.293 60.199 106.297 60.397 106.297 60.598 C 106.297 66.068 102.912 70.579 98.567 73.105 L 56.747 99.366 L 26.429 118.406 C 25.303 119.221 23.446 120 21.655 120 C 17.268 120 13.706 116.439 13.706 112.051 C 13.669 110.983 14.019 110.034 14.257 109.14 L 19.499 92.357 L 29.607 60 L 29.607 60 Z " fill="rgb(255,255,255)"/></clipPath><g clip-path="url(#_clipPath_UaNAjd6LklKVHBEqHyJTFq3Npswgb3HL)"><g><path d=" M 18.497 24.845 C 39.718 93.221 46.319 103.669 29.607 115.918 C 20.181 124.929 4.396 123.649 -17.77 112.051 L 18.497 24.845 Z " fill="rgb(87,123,106)"/></g></g></g></g></svg>