<?xml version="1.0" encoding="UTF-8" standalone="no"?><!-- Generator: Gravit.io --><svg xmlns="http://www.w3.org/2000/svg" xmlns:xlink="http://www.w3.org/1999/xlink" style="isolation:isolate" viewBox="0 0 825.889 111.4" width="825.889pt" height="111.4pt"><defs><clipPath id="_clipPath_tF5IRBRc8W9NnCPjhWdvRTTZ4evh4yCj"><rect width="825.889" height="111.4"/></clipPath></defs><g clip-path="url(#_clipPath_tF5IRBRc8W9NnCPjhWdvRTTZ4evh4yCj)"><path d=" M 62.389 111.4 C 60.489 111.4 58.589 111.1 56.789 110.5 C 51.289 108.7 46.489 104.7 43.689 98.8 L 43.689 98.8 L 0.689 12.8 C -0.711 10 0.089 6.4 2.489 4.8 C 4.889 3.1 7.989 4.1 9.389 6.9 L 52.389 93 L 52.389 93 C 53.889 96.1 56.389 98.3 59.389 99.2 C 62.289 100.1 65.489 99.7 68.089 97.8 C 69.889 96.6 71.289 95 72.289 92.9 L 72.289 92.9 L 115.289 6.8 C 116.689 4 119.789 3 122.189 4.7 C 124.589 6.4 125.489 9.9 124.089 12.7 L 81.089 98.8 L 81.089 98.8 C 79.189 102.6 76.489 105.7 73.189 107.9 C 69.889 110.4 66.189 111.4 62.389 111.4 Z " fill="rgb(255,255,255)"/><path d=" M 681.489 107.5 C 678.289 107.5 675.689 104.9 675.689 101.7 L 675.689 6.1 C 675.689 2.9 678.289 0.3 681.489 0.3 C 684.689 0.3 687.289 2.9 687.289 6.1 L 687.289 101.7 C 687.389 104.8 684.789 107.5 681.489 107.5 Z " fill="rgb(255,255,255)"/><path d=" M 635.889 107.5 C 632.689 107.5 630.089 104.9 630.089 101.7 L 630.089 44.3 C 630.089 26.4 615.589 11.9 597.689 11.9 C 579.789 11.9 565.289 26.4 565.289 44.3 L 565.289 101.7 C 565.289 104.9 562.689 107.5 559.489 107.5 C 556.289 107.5 553.689 104.9 553.689 101.7 L 553.689 44.3 C 553.689 26.4 539.189 11.9 521.289 11.9 C 503.389 11.9 488.789 26.3 488.789 44.2 L 488.789 101.6 C 488.789 104.8 486.189 107.4 482.989 107.4 C 479.789 107.4 477.189 104.8 477.189 101.6 L 477.189 44.2 C 477.189 19.9 496.989 0.1 521.289 0.1 C 537.589 0.1 551.889 9.1 559.489 22.3 C 567.089 9.1 581.389 0.1 597.689 0.1 C 621.989 0.1 641.789 19.9 641.789 44.2 L 641.789 101.6 C 641.789 104.8 639.189 107.5 635.889 107.5 Z " fill="rgb(255,255,255)"/><path d=" M 404.089 107.5 C 379.789 107.5 359.889 87.7 359.889 63.4 L 359.889 6 C 359.889 2.8 362.489 0.2 365.689 0.2 C 368.889 0.2 371.489 2.8 371.489 6 L 371.489 63.4 C 371.489 81.3 385.989 95.8 403.889 95.8 C 421.789 95.8 436.289 81.3 436.289 63.4 L 436.289 6 C 436.289 2.8 438.889 0.2 442.089 0.2 C 445.289 0.2 447.889 2.8 447.889 6 L 447.889 63.4 C 448.189 87.7 428.389 107.5 404.089 107.5 Z " fill="rgb(255,255,255)"/><path d=" M 339.189 107.5 L 310.489 107.5 C 286.189 107.5 266.289 87.7 266.289 63.4 L 266.289 6 C 266.289 2.8 268.889 0.2 272.089 0.2 C 275.289 0.2 277.889 2.8 277.889 6 L 277.889 63.4 C 277.889 81.3 292.389 95.8 310.289 95.8 L 338.989 95.8 C 342.189 95.8 344.789 98.4 344.789 101.6 C 345.189 104.8 342.489 107.5 339.189 107.5 Z " fill="rgb(255,255,255)"/><path d=" M 811.889 100.6 C 811.889 100 811.989 99.3 812.189 98.8 C 812.389 98.3 812.589 97.6 812.889 97.1 C 813.189 96.6 813.589 96.1 813.989 95.7 C 814.389 95.3 814.889 94.9 815.389 94.6 C 815.889 94.3 816.489 94.1 817.089 93.9 C 817.689 93.7 818.289 93.6 818.889 93.6 C 819.489 93.6 820.189 93.7 820.689 93.9 C 821.189 94.1 821.889 94.3 822.389 94.6 C 822.889 94.9 823.389 95.3 823.789 95.7 C 824.189 96.1 824.589 96.6 824.889 97.1 C 825.189 97.6 825.389 98.2 825.589 98.8 C 825.789 99.4 825.889 100 825.889 100.6 C 825.889 101.2 825.789 101.9 825.589 102.4 C 825.389 103 825.189 103.6 824.889 104.1 C 824.589 104.6 824.189 105.1 823.789 105.5 C 823.389 105.9 822.889 106.3 822.389 106.6 C 821.889 106.9 821.289 107.1 820.689 107.3 C 820.089 107.5 819.489 107.6 818.889 107.6 C 818.289 107.6 817.589 107.5 817.089 107.3 C 816.589 107.1 815.889 106.9 815.389 106.6 C 814.889 106.3 814.389 105.9 813.989 105.5 C 813.589 105.1 813.189 104.6 812.889 104.1 C 812.589 103.6 812.389 103 812.189 102.4 C 811.989 101.8 811.889 101.3 811.889 100.6 Z  M 812.489 100.6 C 812.489 101.5 812.689 102.3 812.989 103 C 813.289 103.7 813.789 104.5 814.389 105 C 814.989 105.6 815.689 106 816.289 106.4 C 817.089 106.7 817.889 106.9 818.689 106.9 C 819.489 106.9 820.389 106.7 821.089 106.4 C 821.889 106.1 822.589 105.6 823.089 105 C 823.689 104.4 824.089 103.7 824.489 103 C 824.789 102.2 824.989 101.4 824.989 100.6 C 824.989 99.7 824.789 98.9 824.489 98.2 C 824.189 97.5 823.689 96.7 823.089 96.2 C 822.489 95.6 821.789 95.1 821.089 94.8 C 820.389 94.5 819.489 94.3 818.689 94.3 C 817.889 94.3 816.989 94.5 816.289 94.8 C 815.589 95.1 814.789 95.6 814.389 96.2 C 813.789 96.8 813.389 97.5 812.989 98.2 C 812.589 99 812.489 99.8 812.489 100.6 Z  M 816.989 101.1 L 816.989 104.8 L 816.189 104.8 L 816.189 96.5 L 818.489 96.5 C 819.489 96.5 820.189 96.7 820.689 97.1 C 821.189 97.5 821.489 98 821.489 98.8 C 821.489 99.4 821.289 100 820.889 100.4 C 820.489 100.8 819.889 101.1 819.089 101.2 C 819.189 101.2 819.189 101.3 819.289 101.4 C 819.389 101.5 819.389 101.5 819.489 101.6 L 822.189 105.1 L 821.389 105.1 C 821.289 105.1 821.289 105.1 821.189 105.1 L 821.089 105 L 818.589 101.7 C 818.489 101.6 818.489 101.6 818.389 101.5 C 818.289 101.5 818.189 101.4 817.989 101.4 L 816.989 101.1 L 816.989 101.1 Z  M 816.989 100.5 L 818.389 100.5 C 819.189 100.5 819.789 100.3 820.189 100 C 820.589 99.7 820.789 99.2 820.789 98.6 C 820.789 98 820.589 97.6 820.289 97.3 C 819.989 97 819.389 96.9 818.589 96.9 L 816.989 96.9 L 816.989 100.5 L 816.989 100.5 Z " fill="rgb(255,255,255)"/><path d=" M 771.889 0 C 801.489 0 825.589 24.1 825.589 53.7 C 825.589 83.3 801.489 107.5 771.889 107.5 C 742.289 107.5 718.189 83.4 718.189 53.8 C 718.189 24.1 742.289 0 771.889 0 Z  M 771.889 95.7 C 795.089 95.7 813.889 76.8 813.889 53.8 C 813.889 30.8 794.989 11.8 771.889 11.8 C 748.689 11.8 729.989 30.7 729.989 53.8 C 729.989 76.9 748.789 95.7 771.889 95.7 Z " fill="rgb(255,255,255)"/><path d=" M 776.589 57.4 C 778.189 57.5 779.589 58.4 780.289 59.9 L 790.489 80.3 C 791.489 82.5 790.689 85.1 788.589 86.2 C 786.389 87.3 783.789 86.4 782.689 84.3 L 772.489 63.9 C 771.489 61.7 772.289 59.1 774.389 58 C 775.089 57.5 775.789 57.4 776.589 57.4 Z " fill="rgb(81,178,137)"/><path d=" M 188.889 107.5 C 159.289 107.5 135.189 83.4 135.189 53.8 C 135.189 24.2 159.289 0.1 188.889 0.1 C 218.489 0.1 242.589 24.2 242.589 53.8 C 242.589 83.4 218.489 107.5 188.889 107.5 Z  M 188.889 11.8 C 165.689 11.8 146.889 30.7 146.889 53.7 C 146.889 76.7 165.789 95.7 188.889 95.7 C 212.089 95.7 230.789 76.8 230.789 53.7 C 230.789 30.6 212.089 11.8 188.889 11.8 Z " fill="rgb(255,255,255)"/><path d=" M 184.189 50.1 C 182.589 50 181.189 49.1 180.489 47.6 L 170.289 27.2 C 169.289 25 170.089 22.4 172.189 21.3 C 174.389 20.2 176.989 21.1 178.089 23.2 L 188.289 43.6 C 189.289 45.8 188.489 48.4 186.389 49.5 C 185.789 50 184.989 50.1 184.189 50.1 Z " fill="rgb(81,178,137)"/></g></svg>